<mxfile host="Electron" modified="2025-06-24T07:09:12.604Z" agent="Mozilla/5.0 (Windows NT 10.0; Win64; x64) AppleWebKit/537.36 (KHTML, like Gecko) draw.io/22.0.0 Chrome/114.0.5735.289 Electron/25.8.3 Safari/537.36" etag="T-VwV0jiLzAm3ERKd2P7" version="22.0.0" type="device">
  <diagram name="Page-1" id="4mDQixquZTk87Q19-Bkj">
    <mxGraphModel dx="2126" dy="1706" grid="1" gridSize="10" guides="1" tooltips="1" connect="1" arrows="1" fold="1" page="1" pageScale="1" pageWidth="850" pageHeight="1100" math="0" shadow="0">
      <root>
        <mxCell id="0" />
        <mxCell id="1" parent="0" />
        <mxCell id="b9wwrRvWpLCTSX36s-bc-18" value="&lt;font style=&quot;font-size: 24px;&quot;&gt;HO1&lt;/font&gt;" style="text;html=1;strokeColor=none;fillColor=none;align=center;verticalAlign=middle;whiteSpace=wrap;rounded=0;" vertex="1" parent="1">
          <mxGeometry x="-20" y="30" width="60" height="30" as="geometry" />
        </mxCell>
        <mxCell id="b9wwrRvWpLCTSX36s-bc-19" value="&lt;font style=&quot;font-size: 24px;&quot;&gt;LO1&lt;/font&gt;" style="text;html=1;strokeColor=none;fillColor=none;align=center;verticalAlign=middle;whiteSpace=wrap;rounded=0;" vertex="1" parent="1">
          <mxGeometry x="-20" y="150" width="60" height="30" as="geometry" />
        </mxCell>
        <mxCell id="b9wwrRvWpLCTSX36s-bc-44" value="" style="endArrow=none;html=1;rounded=0;" edge="1" parent="1">
          <mxGeometry width="50" height="50" relative="1" as="geometry">
            <mxPoint x="120" y="-240" as="sourcePoint" />
            <mxPoint x="310" y="-240" as="targetPoint" />
          </mxGeometry>
        </mxCell>
        <mxCell id="b9wwrRvWpLCTSX36s-bc-46" value="" style="endArrow=none;html=1;rounded=0;" edge="1" parent="1">
          <mxGeometry width="50" height="50" relative="1" as="geometry">
            <mxPoint x="80" y="-160" as="sourcePoint" />
            <mxPoint x="120" y="-240" as="targetPoint" />
          </mxGeometry>
        </mxCell>
        <mxCell id="b9wwrRvWpLCTSX36s-bc-47" value="" style="endArrow=none;html=1;rounded=0;" edge="1" parent="1">
          <mxGeometry width="50" height="50" relative="1" as="geometry">
            <mxPoint x="130" y="-240" as="sourcePoint" />
            <mxPoint x="320" y="-240" as="targetPoint" />
          </mxGeometry>
        </mxCell>
        <mxCell id="b9wwrRvWpLCTSX36s-bc-48" value="" style="endArrow=none;html=1;rounded=0;" edge="1" parent="1">
          <mxGeometry width="50" height="50" relative="1" as="geometry">
            <mxPoint x="320" y="-240" as="sourcePoint" />
            <mxPoint x="360" y="-160" as="targetPoint" />
          </mxGeometry>
        </mxCell>
        <mxCell id="b9wwrRvWpLCTSX36s-bc-56" value="&lt;font style=&quot;font-size: 24px;&quot;&gt;HI1&lt;/font&gt;" style="text;html=1;strokeColor=none;fillColor=none;align=center;verticalAlign=middle;whiteSpace=wrap;rounded=0;" vertex="1" parent="1">
          <mxGeometry x="-20" y="-210" width="60" height="30" as="geometry" />
        </mxCell>
        <mxCell id="b9wwrRvWpLCTSX36s-bc-57" value="&lt;font style=&quot;font-size: 24px;&quot;&gt;LI1&lt;/font&gt;" style="text;html=1;strokeColor=none;fillColor=none;align=center;verticalAlign=middle;whiteSpace=wrap;rounded=0;" vertex="1" parent="1">
          <mxGeometry x="-20" y="-90" width="60" height="30" as="geometry" />
        </mxCell>
        <mxCell id="b9wwrRvWpLCTSX36s-bc-106" value="" style="endArrow=none;html=1;rounded=0;" edge="1" parent="1">
          <mxGeometry width="50" height="50" relative="1" as="geometry">
            <mxPoint x="120" y="-140" as="sourcePoint" />
            <mxPoint x="310" y="-140" as="targetPoint" />
          </mxGeometry>
        </mxCell>
        <mxCell id="b9wwrRvWpLCTSX36s-bc-107" value="" style="endArrow=none;html=1;rounded=0;" edge="1" parent="1">
          <mxGeometry width="50" height="50" relative="1" as="geometry">
            <mxPoint x="80" y="-60" as="sourcePoint" />
            <mxPoint x="120" y="-140" as="targetPoint" />
          </mxGeometry>
        </mxCell>
        <mxCell id="b9wwrRvWpLCTSX36s-bc-108" value="" style="endArrow=none;html=1;rounded=0;" edge="1" parent="1">
          <mxGeometry width="50" height="50" relative="1" as="geometry">
            <mxPoint x="130" y="-140" as="sourcePoint" />
            <mxPoint x="320" y="-140" as="targetPoint" />
          </mxGeometry>
        </mxCell>
        <mxCell id="b9wwrRvWpLCTSX36s-bc-109" value="" style="endArrow=none;html=1;rounded=0;" edge="1" parent="1">
          <mxGeometry width="50" height="50" relative="1" as="geometry">
            <mxPoint x="320" y="-140" as="sourcePoint" />
            <mxPoint x="360" y="-60" as="targetPoint" />
          </mxGeometry>
        </mxCell>
        <mxCell id="b9wwrRvWpLCTSX36s-bc-110" value="" style="endArrow=none;dashed=1;html=1;dashPattern=1 3;strokeWidth=2;rounded=0;" edge="1" parent="1">
          <mxGeometry width="50" height="50" relative="1" as="geometry">
            <mxPoint x="100" y="230" as="sourcePoint" />
            <mxPoint x="100" y="-270" as="targetPoint" />
          </mxGeometry>
        </mxCell>
        <mxCell id="b9wwrRvWpLCTSX36s-bc-111" value="" style="endArrow=none;dashed=1;html=1;dashPattern=1 3;strokeWidth=2;rounded=0;" edge="1" parent="1">
          <mxGeometry width="50" height="50" relative="1" as="geometry">
            <mxPoint x="340" y="240.7999267578125" as="sourcePoint" />
            <mxPoint x="340" y="-270" as="targetPoint" />
          </mxGeometry>
        </mxCell>
        <mxCell id="b9wwrRvWpLCTSX36s-bc-112" value="" style="endArrow=none;html=1;rounded=0;" edge="1" parent="1">
          <mxGeometry width="50" height="50" relative="1" as="geometry">
            <mxPoint x="70" y="60" as="sourcePoint" />
            <mxPoint x="190" y="60" as="targetPoint" />
          </mxGeometry>
        </mxCell>
        <mxCell id="b9wwrRvWpLCTSX36s-bc-113" value="" style="endArrow=none;html=1;rounded=0;" edge="1" parent="1">
          <mxGeometry width="50" height="50" relative="1" as="geometry">
            <mxPoint x="190" y="60" as="sourcePoint" />
            <mxPoint x="230" as="targetPoint" />
          </mxGeometry>
        </mxCell>
        <mxCell id="b9wwrRvWpLCTSX36s-bc-114" value="" style="endArrow=none;html=1;rounded=0;" edge="1" parent="1">
          <mxGeometry width="50" height="50" relative="1" as="geometry">
            <mxPoint x="230" as="sourcePoint" />
            <mxPoint x="360" as="targetPoint" />
          </mxGeometry>
        </mxCell>
        <mxCell id="b9wwrRvWpLCTSX36s-bc-115" value="" style="endArrow=none;dashed=1;html=1;dashPattern=1 3;strokeWidth=2;rounded=0;" edge="1" parent="1">
          <mxGeometry width="50" height="50" relative="1" as="geometry">
            <mxPoint x="200" y="230" as="sourcePoint" />
            <mxPoint x="200" y="30" as="targetPoint" />
          </mxGeometry>
        </mxCell>
        <mxCell id="b9wwrRvWpLCTSX36s-bc-116" value="" style="endArrow=none;html=1;rounded=0;" edge="1" parent="1">
          <mxGeometry width="50" height="50" relative="1" as="geometry">
            <mxPoint x="70" y="170" as="sourcePoint" />
            <mxPoint x="160" y="170" as="targetPoint" />
          </mxGeometry>
        </mxCell>
        <mxCell id="b9wwrRvWpLCTSX36s-bc-117" value="" style="endArrow=none;html=1;rounded=0;" edge="1" parent="1">
          <mxGeometry width="50" height="50" relative="1" as="geometry">
            <mxPoint x="160" y="170" as="sourcePoint" />
            <mxPoint x="190" y="230" as="targetPoint" />
          </mxGeometry>
        </mxCell>
        <mxCell id="b9wwrRvWpLCTSX36s-bc-118" value="" style="endArrow=none;dashed=1;html=1;dashPattern=1 3;strokeWidth=2;rounded=0;" edge="1" parent="1">
          <mxGeometry width="50" height="50" relative="1" as="geometry">
            <mxPoint x="170" y="210" as="sourcePoint" />
            <mxPoint x="170" y="120" as="targetPoint" />
          </mxGeometry>
        </mxCell>
        <mxCell id="b9wwrRvWpLCTSX36s-bc-119" value="" style="endArrow=none;html=1;rounded=0;" edge="1" parent="1">
          <mxGeometry width="50" height="50" relative="1" as="geometry">
            <mxPoint x="390" y="60" as="sourcePoint" />
            <mxPoint x="360" as="targetPoint" />
          </mxGeometry>
        </mxCell>
        <mxCell id="b9wwrRvWpLCTSX36s-bc-120" value="" style="endArrow=none;html=1;rounded=0;" edge="1" parent="1">
          <mxGeometry width="50" height="50" relative="1" as="geometry">
            <mxPoint x="190" y="230" as="sourcePoint" />
            <mxPoint x="370" y="230" as="targetPoint" />
          </mxGeometry>
        </mxCell>
        <mxCell id="b9wwrRvWpLCTSX36s-bc-122" value="" style="endArrow=none;html=1;rounded=0;" edge="1" parent="1">
          <mxGeometry width="50" height="50" relative="1" as="geometry">
            <mxPoint x="370" y="230" as="sourcePoint" />
            <mxPoint x="410" y="170" as="targetPoint" />
          </mxGeometry>
        </mxCell>
        <mxCell id="b9wwrRvWpLCTSX36s-bc-123" value="" style="endArrow=none;html=1;rounded=0;" edge="1" parent="1">
          <mxGeometry width="50" height="50" relative="1" as="geometry">
            <mxPoint x="410" y="170" as="sourcePoint" />
            <mxPoint x="570" y="170" as="targetPoint" />
          </mxGeometry>
        </mxCell>
        <mxCell id="b9wwrRvWpLCTSX36s-bc-124" value="" style="endArrow=none;dashed=1;html=1;dashPattern=1 3;strokeWidth=2;rounded=0;" edge="1" parent="1">
          <mxGeometry width="50" height="50" relative="1" as="geometry">
            <mxPoint x="380" y="240" as="sourcePoint" />
            <mxPoint x="380" y="-20" as="targetPoint" />
          </mxGeometry>
        </mxCell>
        <mxCell id="b9wwrRvWpLCTSX36s-bc-127" value="" style="endArrow=classic;startArrow=classic;html=1;rounded=0;" edge="1" parent="1">
          <mxGeometry width="50" height="50" relative="1" as="geometry">
            <mxPoint x="170" y="240" as="sourcePoint" />
            <mxPoint x="200" y="240" as="targetPoint" />
          </mxGeometry>
        </mxCell>
        <mxCell id="b9wwrRvWpLCTSX36s-bc-128" value="DT = 650ns" style="text;html=1;strokeColor=none;fillColor=none;align=center;verticalAlign=middle;whiteSpace=wrap;rounded=0;" vertex="1" parent="1">
          <mxGeometry x="150" y="240" width="80" height="30" as="geometry" />
        </mxCell>
        <mxCell id="b9wwrRvWpLCTSX36s-bc-129" value="" style="endArrow=classic;startArrow=classic;html=1;rounded=0;" edge="1" parent="1">
          <mxGeometry width="50" height="50" relative="1" as="geometry">
            <mxPoint x="340" y="250" as="sourcePoint" />
            <mxPoint x="380" y="250" as="targetPoint" />
          </mxGeometry>
        </mxCell>
        <mxCell id="b9wwrRvWpLCTSX36s-bc-130" value="DT = 650ns" style="text;html=1;strokeColor=none;fillColor=none;align=center;verticalAlign=middle;whiteSpace=wrap;rounded=0;" vertex="1" parent="1">
          <mxGeometry x="320" y="260" width="80" height="30" as="geometry" />
        </mxCell>
        <mxCell id="b9wwrRvWpLCTSX36s-bc-132" value="" style="endArrow=classic;startArrow=classic;html=1;rounded=0;" edge="1" parent="1">
          <mxGeometry width="50" height="50" relative="1" as="geometry">
            <mxPoint x="200" y="270" as="sourcePoint" />
            <mxPoint x="230" y="270" as="targetPoint" />
            <Array as="points" />
          </mxGeometry>
        </mxCell>
        <mxCell id="b9wwrRvWpLCTSX36s-bc-133" value="tr = 170ns" style="text;html=1;strokeColor=none;fillColor=none;align=center;verticalAlign=middle;whiteSpace=wrap;rounded=0;" vertex="1" parent="1">
          <mxGeometry x="190" y="270" width="60" height="30" as="geometry" />
        </mxCell>
        <mxCell id="b9wwrRvWpLCTSX36s-bc-136" value="" style="endArrow=classic;startArrow=classic;html=1;rounded=0;" edge="1" parent="1">
          <mxGeometry width="50" height="50" relative="1" as="geometry">
            <mxPoint x="375" y="290" as="sourcePoint" />
            <mxPoint x="410" y="290" as="targetPoint" />
            <Array as="points" />
          </mxGeometry>
        </mxCell>
        <mxCell id="b9wwrRvWpLCTSX36s-bc-137" value="tf = 60ns" style="text;html=1;strokeColor=none;fillColor=none;align=center;verticalAlign=middle;whiteSpace=wrap;rounded=0;" vertex="1" parent="1">
          <mxGeometry x="365" y="290" width="60" height="30" as="geometry" />
        </mxCell>
        <mxCell id="b9wwrRvWpLCTSX36s-bc-139" value="" style="endArrow=none;html=1;rounded=0;" edge="1" parent="1">
          <mxGeometry width="50" height="50" relative="1" as="geometry">
            <mxPoint x="360" y="-160" as="sourcePoint" />
            <mxPoint x="570" y="-160" as="targetPoint" />
          </mxGeometry>
        </mxCell>
        <mxCell id="b9wwrRvWpLCTSX36s-bc-140" value="" style="endArrow=none;html=1;rounded=0;" edge="1" parent="1">
          <mxGeometry width="50" height="50" relative="1" as="geometry">
            <mxPoint x="360" y="-60" as="sourcePoint" />
            <mxPoint x="570" y="-60" as="targetPoint" />
          </mxGeometry>
        </mxCell>
        <mxCell id="b9wwrRvWpLCTSX36s-bc-141" value="" style="endArrow=none;html=1;rounded=0;" edge="1" parent="1">
          <mxGeometry width="50" height="50" relative="1" as="geometry">
            <mxPoint x="390" y="60" as="sourcePoint" />
            <mxPoint x="570" y="60" as="targetPoint" />
          </mxGeometry>
        </mxCell>
      </root>
    </mxGraphModel>
  </diagram>
</mxfile>
